<?xml version="1.0" encoding="utf-8"?>
<!-- Generator: Adobe Illustrator 23.0.1, SVG Export Plug-In . SVG Version: 6.00 Build 0)  -->
<svg version="1.1" id="Layer_1" xmlns="http://www.w3.org/2000/svg" xmlns:xlink="http://www.w3.org/1999/xlink" x="0px" y="0px"
	 viewBox="0 0 83.7 27.1" style="enable-background:new 0 0 83.7 27.1;" xml:space="preserve">
<style type="text/css">
	.st0{display:none;fill:#010101;}
	.st1{fill:#333333;}
</style>
<rect x="-315.3" y="-154.5" class="st0" width="215.9" height="215.9"/>
<g>
	<path class="st1" d="M23.8,2c-0.6-0.5-1.3-0.8-2.1-1.2C20.5,0.3,19.2,0,17.8,0H7.2C7.1,0,7.1,0,7,0C6.8,0,6.5,0.2,6.3,0.4
		C6.2,0.5,6.1,0.7,6.1,0.9c0,0,0,0,0,0l-1.6,9.5l1.4,0c1.8,0,3.6-0.1,5.4-0.6l1.5-0.3l0.5-0.1c0.5-0.1,0.9-0.5,1-1.1l0,0l0.5-3
		c0.1-0.6,0.9-0.9,1.3-0.4l6.1,6c0.3,0.3,0.3,0.9-0.1,1.2l-8.2,6c-0.6,0.4-1.4-0.1-1.2-0.8l0.2-1.3c0,0,0,0,0,0l0.1-0.8
		c0.1-0.5-0.3-0.9-0.7-1l0,0h-0.8l-3.1-0.1c-0.5,0-1.2-0.1-1.9-0.2C6.3,14.1,6.2,14,6,14l0,0c-0.1,0-0.3-0.1-0.4-0.1
		c-0.1,0-0.1,0-0.2,0c-0.1,0-0.2,0-0.2-0.1c-0.1,0-0.3-0.1-0.4-0.1c0,0-0.1,0-0.1,0c-0.2,0-0.3-0.1-0.5-0.1c-0.9-0.3-1.9-0.6-2.6-1
		l0,0c-0.6-0.3-1.1-0.6-1.4-1l0,0c-0.1,0.7,0,1.5,0.4,2.2c0.4,0.6,1.1,1.1,1.8,1.4l1.4,0.5L1.9,26v0c0,0,0,0,0,0
		c0,0.3,0,0.5,0.2,0.7c0.2,0.2,0.4,0.4,0.7,0.4c0.1,0,0.1,0,0.2,0v0h6.6c0.2,0,0.5-0.1,0.6-0.3c0,0,0.1-0.1,0.1-0.1c0,0,0,0,0,0
		c0,0,0-0.1,0.1-0.1c0,0,0,0,0,0c0-0.1,0-0.1,0.1-0.2l0.3-1.5h0c0.1-0.8,0.7-1.4,1.5-1.4h3.3c0.3,0,0.7,0,1,0
		c1.3-0.1,2.5-0.3,3.7-0.8c3-1.2,5.6-3.5,7-6.5C29.5,10.9,28.4,5.3,23.8,2z"/>
	<path class="st1" d="M43.3,6.3L43,7.9h-0.1c-0.4-1-1.6-2.2-4.2-2.2c-4.1,0-8.3,3.2-9.1,8.3c-0.7,4.4,1.6,8.3,6.5,8.3
		c1.8,0,3.9-0.7,4.9-2.2h0.1l-0.3,1.7h4.6l2.4-15.5H43.3z M42,14c-0.2,1.5-1.6,4-4.5,4c-2.8,0-3.5-2.5-3.2-3.9c0.3-1.8,1.8-4,4.5-4
		C41.4,10.1,42.3,12.1,42,14z"/>
	<path class="st1" d="M59.1,5.7c-2.4,0-4.1,1.1-5.2,2.2h-0.1h0l0.3-1.7h-4.4L46.5,27h4.6l1-6.6c0.5,0.6,1.6,1.9,4.4,1.9
		c4.4,0,8.1-3.7,8.8-8.1C65.9,10.6,64.6,5.7,59.1,5.7z M60.8,14c-0.3,2-2.1,3.9-4.5,3.9c-2.4,0-3.6-2-3.3-3.9c0.3-1.8,2-4,4.5-4
		S61.1,12.2,60.8,14z"/>
	<path class="st1" d="M76.6,5.8c-5.6,0-9.1,4.4-9.7,8.2c-0.6,3.8,1.4,8.2,7.1,8.2c5.6,0,9.1-4.4,9.7-8.2
		C84.2,10.2,82.2,5.8,76.6,5.8z M79,14c-0.4,2.3-2.3,3.9-4.3,3.9c-2,0-3.5-1.6-3.1-3.9c0.4-2.3,2.3-3.9,4.3-3.9
		C77.9,10.1,79.4,11.8,79,14z"/>
</g>
</svg>
