<?xml version="1.0" encoding="utf-8"?>
<!-- Generator: Adobe Illustrator 23.0.1, SVG Export Plug-In . SVG Version: 6.00 Build 0)  -->
<svg version="1.1" id="Layer_1" xmlns="http://www.w3.org/2000/svg" xmlns:xlink="http://www.w3.org/1999/xlink" x="0px" y="0px"
	 viewBox="0 0 117.7 30.8" style="enable-background:new 0 0 117.7 30.8;" xml:space="preserve">
<style type="text/css">
	.st0{display:none;fill:#010101;}
	.st1{fill:#333333;}
</style>
<rect x="-314.3" y="-154.5" class="st0" width="215.9" height="215.9"/>
<g>
	
		<ellipse transform="matrix(9.422714e-02 -0.9956 0.9956 9.422714e-02 -0.5749 22.6677)" class="st1" cx="12.2" cy="11.6" rx="5.8" ry="5.8"/>
	<path class="st1" d="M0,24.3h24.3V0H0V24.3z M2.7,11.6c0-5.2,4.2-9.5,9.5-9.5c5.2,0,9.5,4.2,9.5,9.5c0,5.2-4.2,9.5-9.5,9.5
		c-2.2,0-4.2-0.8-5.8-2l-3.6,3V11.6z"/>
	<path class="st1" d="M40.7,0H28.5v24.3h4.8V15h7.3c7.9,0,9.4-4.4,9.4-7.4S48.5,0,40.7,0z M40.4,11.5h-7v-8h7.1c2.5,0,4.7,0.8,4.7,4
		C45.2,10.5,42.5,11.5,40.4,11.5z"/>
	<path class="st1" d="M71.3,21.7c-0.8,0-1-0.4-1-1.3v-9c0-3.7-4.1-5.1-8-5.1c-4.4,0-8.7,1.3-9,5.9h4.4c0.2-1.9,1.9-2.8,4.4-2.8
		c1.7,0,4.1,0.3,4.1,2.4c0,2.3-2.8,1.9-6,2.5c-3.7,0.4-7.7,1.1-7.7,5.5c0,3.4,3.2,5.1,6.8,5.1c2.3,0,5.2-0.6,6.9-2.1
		c0.3,1.6,1.6,2.1,3.4,2.1c0.7,0,2.1-0.2,2.8-0.4v-2.7c-0.2,0-0.4,0.1-0.6,0.1H71.3z M65.9,18.4c0,2.5-3,3.3-4.9,3.3
		c-1.5,0-4-0.5-4-2.2c0-2,1.7-2.7,3.6-2.9c2-0.3,4-0.3,5.4-1.1V18.4z"/>
	<path class="st1" d="M85.5,6.2c-2.6,0-4.9,0.8-6.2,2.9h-0.1V6.7h-4.2v24.1h4.4V22h0.1c1.3,1.9,4.1,2.8,6.7,2.8
		c5.8,0,8.6-4.4,8.6-9.2C94.8,10.4,91.8,6.2,85.5,6.2z M84.9,21.7c-3.5,0-5.6-2.7-5.6-6.2c0-3.8,1.9-6.2,5.6-6.2
		c3.6,0,5.5,3.1,5.5,6.2C90.4,18.6,88.9,21.7,84.9,21.7z"/>
	<path class="st1" d="M107.7,6.2c-6.4,0-10,3.9-10,9.3c0,5.4,3.7,9.3,10,9.3c6.3,0,10-3.9,10-9.3C117.7,10.1,114,6.2,107.7,6.2z
		 M107.7,21.7c-3.9,0-5.7-3.2-5.7-6.2c0-3,1.7-6.2,5.7-6.2c3.9,0,5.7,3.2,5.7,6.2C113.3,18.5,111.6,21.7,107.7,21.7z"/>
</g>
</svg>
