<?xml version="1.0" encoding="UTF-8" standalone="no"?>
<svg width="1164px" height="520px" viewBox="0 0 1164 520" version="1.1" xmlns="http://www.w3.org/2000/svg" xmlns:xlink="http://www.w3.org/1999/xlink">
    <!-- Generator: Sketch 3.6.1 (26313) - http://www.bohemiancoding.com/sketch -->
    <title>Slice 1</title>
    <desc>Created with Sketch.</desc>
    <defs>
        <path d="M249,392 C249,406.887 261.112,419 276,419 C290.888,419 303,406.887 303,392 C303,377.112 290.888,365 276,365 C261.112,365 249,377.112 249,392 L249,392 L249,392 Z M255.716,378.665 C260.057,372.075 267.518,367.725 276,367.725 C282.32,367.725 288.073,370.14 292.393,374.099 C292.288,374.091 292.186,374.077 292.078,374.077 C289.693,374.077 288.001,376.154 288.001,378.386 C288.001,380.386 289.156,382.078 290.386,384.08 C291.309,385.696 292.387,387.773 292.387,390.774 C292.387,392.853 291.77,395.466 290.54,398.622 L288.118,406.711 L279.344,380.616 C280.806,380.541 282.124,380.386 282.124,380.386 C283.43,380.233 283.277,378.309 281.969,378.386 C281.969,378.386 278.038,378.696 275.498,378.696 C273.113,378.696 269.104,378.386 269.104,378.386 C267.796,378.309 267.643,380.309 268.951,380.386 C268.951,380.386 270.19,380.541 271.496,380.616 L275.278,390.979 L269.965,406.911 L261.127,380.616 C262.59,380.541 263.904,380.386 263.904,380.386 C265.213,380.233 265.058,378.309 263.749,378.386 C263.749,378.386 259.818,378.696 257.28,378.696 C256.825,378.696 256.286,378.683 255.716,378.665 L255.716,378.665 L255.716,378.665 Z M295.618,391.544 C297.004,388.081 297.465,385.311 297.465,382.848 C297.465,381.956 297.406,381.126 297.301,380.354 C299.197,383.81 300.275,387.779 300.275,392 C300.275,400.955 295.422,408.774 288.204,412.98 L295.618,391.544 L295.618,391.544 L295.618,391.544 Z M251.725,392 C251.725,388.479 252.479,385.138 253.828,382.119 L265.407,413.846 C257.307,409.911 251.725,401.608 251.725,392 L251.725,392 L251.725,392 Z M269.142,415.286 L276.427,394.122 L283.888,414.564 C283.936,414.683 283.996,414.793 284.06,414.899 C281.539,415.787 278.826,416.276 276,416.276 C273.617,416.276 271.316,415.925 269.142,415.286 L269.142,415.286 L269.142,415.286 Z" id="path-1"></path>
    </defs>
    <g id="Page-1" stroke="none" stroke-width="1" fill="none" fill-rule="evenodd">
        <g id="Android" transform="translate(150.000000, 88.000000)">
            <path d="M29.6475728,0 C13.3416699,0 0,13.4733913 0,29.9405217 L0,29.9405217 L0,402.059478 C0,418.526609 13.3416699,432 29.6475728,432 L29.6475728,432 L186.352427,432 C202.65833,432 216,418.526609 216,402.059478 L216,402.059478 L216,29.9405217 C216,13.4733913 202.65833,0 186.352427,0 L186.352427,0 L29.6475728,0 L29.6475728,0 Z" id="Device" fill="#2E4453"></path>
            <path d="M76.0556714,16 C73.8156143,16 72,17.344 72,19 L72,19 C72,20.656 73.8156143,22 76.0556714,22 L76.0556714,22 L140.944329,22 C143.184386,22 145,20.656 145,19 L145,19 C145,17.344 143.184386,16 140.944329,16 L140.944329,16 L76.0556714,16 L76.0556714,16 Z" id="Earpiece" fill="#3D596D"></path>
            <path d="M76.0556714,410 C73.8156143,410 72,411.344 72,413 L72,413 C72,414.656 73.8156143,416 76.0556714,416 L76.0556714,416 L140.944329,416 C143.184386,416 145,414.656 145,413 L145,413 C145,411.344 143.184386,410 140.944329,410 L140.944329,410 L76.0556714,410 L76.0556714,410 Z" id="Microphone" fill="#3D596D"></path>
            <path d="M216,77 L216,104 L217,104 C217.556,104 218,103.533731 218,102.957385 L218,102.957385 L218,78.0415769 C218,77.4693846 217.552,77 217,77 L217,77 L216,77 L216,77 Z" id="Button" fill="#3D596D"></path>
            <path d="M216,129 L216,183 L217,183 C217.556,183 218,182.538923 218,181.969846 L218,181.969846 L218,130.030154 C218,129.466269 217.552,129 217,129 L217,129 L216,129 L216,129 Z" id="Button" fill="#3D596D"></path>
            <path d="M9,77 L207,77 L207,40 L9,40 L9,77 L9,77 Z" id="Blue-Bar" fill="#0087BE"></path>
            <path d="M9,391 L207,391 L207,364 L9,364 L9,391 L9,391 Z" id="Navbar-Background" fill="#293E4B"></path>
            <path d="M162.111125,371 C161.081546,371 160.248784,371.833857 160.248784,372.862714 L160.248784,382.137286 C160.248784,383.167071 161.082474,384 162.111125,384 L171.383839,384 C172.413418,384 173.24618,383.166143 173.24618,382.137286 L173.24618,372.862714 C173.24618,371.832929 172.41249,371 171.383839,371 L162.111125,371 Z M101.191146,377.5 C101.191146,381.089857 104.100705,384 107.689843,384 C111.278982,384 114.188541,381.089857 114.188541,377.5 C114.188541,373.910143 111.278982,371 107.689843,371 C104.100705,371 101.191146,373.910143 101.191146,377.5 Z M53.2280839,371.094695 L43.3435645,376.896176 C43.1314181,377.020579 43,377.249891 43,377.498698 C43,377.747505 43.1314181,377.975888 43.3435645,378.10122 L53.2280839,383.9027 C53.3360345,383.964902 53.4552495,383.997396 53.5754033,383.997396 C53.6927408,383.997396 53.8119558,383.966759 53.9189677,383.904557 C54.1320528,383.780154 54.2644097,383.549914 54.2644097,383.301107 L54.2644097,371.696289 C54.2644097,371.446553 54.1320528,371.217242 53.9189677,371.092839 C53.8119558,371.030637 53.6927408,371 53.5754033,371 C53.4552495,371 53.3350958,371.031565 53.2280839,371.094695 Z" id="Navbar-Icons" stroke="#FFFFFF" stroke-width="2"></path>
            <path d="M9,255 L207,255 L207,77 L9,77 L9,255 L9,255 Z" id="Screen" fill="#FFFFFF"></path>
            <path d="M9,364 L207,364 L207,255 L9,255 L9,364 L9,364 Z" id="Keyboard-Background" fill="#4F748E"></path>
            <path d="M75.4593714,338 C73.0068286,338 71,339.88055 71,342.19895 L71,354.80105 C71,357.1184 72.9968,359 75.4593714,359 L144.540629,359 C146.993171,359 149,357.1205 149,354.80105 L149,342.19895 C149,339.88265 147.0032,338 144.540629,338 L75.4593714,338 Z M20.3989,260 C17.9712,260 16,261.8795 16,264.19895 L16,276.80105 C16,279.11735 17.9701,281 20.3989,281 L33.6011,281 C36.0288,281 38,279.1205 38,276.80105 L38,264.19895 C38,261.88265 36.0299,260 33.6011,260 L20.3989,260 Z M47.3989,260 C44.9712,260 43,261.8795 43,264.19895 L43,276.80105 C43,279.11735 44.9701,281 47.3989,281 L60.6011,281 C63.0288,281 65,279.1205 65,276.80105 L65,264.19895 C65,261.88265 63.0299,260 60.6011,260 L47.3989,260 Z M74.3989,260 C71.9712,260 70,261.8795 70,264.19895 L70,276.80105 C70,279.11735 71.9701,281 74.3989,281 L87.6011,281 C90.0288,281 92,279.1205 92,276.80105 L92,264.19895 C92,261.88265 90.0299,260 87.6011,260 L74.3989,260 Z M101.3989,260 C98.9712,260 97,261.8795 97,264.19895 L97,276.80105 C97,279.11735 98.9701,281 101.3989,281 L114.6011,281 C117.0288,281 119,279.1205 119,276.80105 L119,264.19895 C119,261.88265 117.0299,260 114.6011,260 L101.3989,260 Z M128.3989,260 C125.9712,260 124,261.8795 124,264.19895 L124,276.80105 C124,279.11735 125.9701,281 128.3989,281 L141.6011,281 C144.0288,281 146,279.1205 146,276.80105 L146,264.19895 C146,261.88265 144.0299,260 141.6011,260 L128.3989,260 Z M155.3989,260 C152.9712,260 151,261.8795 151,264.19895 L151,276.80105 C151,279.11735 152.9701,281 155.3989,281 L168.6011,281 C171.0288,281 173,279.1205 173,276.80105 L173,264.19895 C173,261.88265 171.0299,260 168.6011,260 L155.3989,260 Z M34.3989,286 C31.9712,286 30,287.8795 30,290.19895 L30,302.80105 C30,305.11735 31.9701,307 34.3989,307 L47.6011,307 C50.0288,307 52,305.1205 52,302.80105 L52,290.19895 C52,287.88265 50.0299,286 47.6011,286 L34.3989,286 Z M47.3989,312 C44.9712,312 43,313.8795 43,316.19895 L43,328.80105 C43,331.11735 44.9701,333 47.3989,333 L60.6011,333 C63.0288,333 65,331.1205 65,328.80105 L65,316.19895 C65,313.88265 63.0299,312 60.6011,312 L47.3989,312 Z M74.3989,312 C71.9712,312 70,313.8795 70,316.19895 L70,328.80105 C70,331.11735 71.9701,333 74.3989,333 L87.6011,333 C90.0288,333 92,331.1205 92,328.80105 L92,316.19895 C92,313.88265 90.0299,312 87.6011,312 L74.3989,312 Z M101.3989,312 C98.9712,312 97,313.8795 97,316.19895 L97,328.80105 C97,331.11735 98.9701,333 101.3989,333 L114.6011,333 C117.0288,333 119,331.1205 119,328.80105 L119,316.19895 C119,313.88265 117.0299,312 114.6011,312 L101.3989,312 Z M128.3989,312 C125.9712,312 124,313.8795 124,316.19895 L124,328.80105 C124,331.11735 125.9701,333 128.3989,333 L141.6011,333 C144.0288,333 146,331.1205 146,328.80105 L146,316.19895 C146,313.88265 144.0299,312 141.6011,312 L128.3989,312 Z M155.3989,312 C152.9712,312 151,313.8795 151,316.19895 L151,328.80105 C151,331.11735 152.9701,333 155.3989,333 L168.6011,333 C171.0288,333 173,331.1205 173,328.80105 L173,316.19895 C173,313.88265 171.0299,312 168.6011,312 L155.3989,312 Z M61.3989,286 C58.9712,286 57,287.8795 57,290.19895 L57,302.80105 C57,305.11735 58.9701,307 61.3989,307 L74.6011,307 C77.0288,307 79,305.1205 79,302.80105 L79,290.19895 C79,287.88265 77.0299,286 74.6011,286 L61.3989,286 Z M88.3989,286 C85.9712,286 84,287.8795 84,290.19895 L84,302.80105 C84,305.11735 85.9701,307 88.3989,307 L101.6011,307 C104.0288,307 106,305.1205 106,302.80105 L106,290.19895 C106,287.88265 104.0299,286 101.6011,286 L88.3989,286 Z M115.3989,286 C112.9712,286 111,287.8795 111,290.19895 L111,302.80105 C111,305.11735 112.9701,307 115.3989,307 L128.6011,307 C131.0288,307 133,305.1205 133,302.80105 L133,290.19895 C133,287.88265 131.0299,286 128.6011,286 L115.3989,286 Z M142.3989,286 C139.9712,286 138,287.8795 138,290.19895 L138,302.80105 C138,305.11735 139.9701,307 142.3989,307 L155.6011,307 C158.0288,307 160,305.1205 160,302.80105 L160,290.19895 C160,287.88265 158.0299,286 155.6011,286 L142.3989,286 Z M169.3989,286 C166.9712,286 165,287.8795 165,290.19895 L165,302.80105 C165,305.11735 166.9701,307 169.3989,307 L182.6011,307 C185.0288,307 187,305.1205 187,302.80105 L187,290.19895 C187,287.88265 185.0299,286 182.6011,286 L169.3989,286 Z M182.3989,260 C179.9712,260 178,261.8795 178,264.19895 L178,276.80105 C178,279.11735 179.9701,281 182.3989,281 L195.6011,281 C198.0288,281 200,279.1205 200,276.80105 L200,264.19895 C200,261.88265 198.0299,260 195.6011,260 L182.3989,260 Z" id="Keys" fill="#FFFFFF"></path>
            <path d="M106,108 L127,108 L127,98 L106,98 L106,108 Z M137,108 L168,108 L168,98 L137,98 L137,108 Z M34,108 L96,108 L96,98 L34,98 L34,108 Z M65,170 L116,170 L116,160 L65,160 L65,170 Z M34,170 L55,170 L55,160 L34,160 L34,170 Z M148,149 L169,149 L169,139 L148,139 L148,149 Z M86,149 L138,149 L138,139 L86,139 L86,149 Z M34,149 L75,149 L75,139 L34,139 L34,149 Z M75,128 L158,128 L158,118 L75,118 L75,128 Z M34,128 L65,128 L65,118 L34,118 L34,128 Z" id="Greek-Text" fill="#87A6BC"></path>
        </g>
        <g id="iPhone" transform="translate(0.000000, 102.000000)">
            <path d="M0,28.970297 L0,389.029703 C0,404.963366 13.0323529,418 28.9607843,418 L182.039216,418 C197.967647,418 211,404.963366 211,389.029703 L211,28.970297 C211,13.0366336 197.967647,0 182.039216,0 L28.9607843,0 C13.0323529,0 0,13.0366336 0,28.970297 Z" id="Device" fill="#2E4453"></path>
            <path d="M92.1402872,397.340255 C92.1402872,390.484823 97.6966205,384.92849 104.552052,384.92849 C111.406449,384.92849 116.963817,390.484823 116.963817,397.340255 C116.963817,404.195686 111.406449,409.752019 104.552052,409.752019 C97.6966205,409.752019 92.1402872,404.195686 92.1402872,397.340255 Z" id="Home-Button" stroke="#3D596D" stroke-width="2"></path>
            <path d="M89.0555556,14 C87.9208889,14 87,14.895 87,16 L87,16 C87,17.105 87.9208889,18 89.0555556,18 L89.0555556,18 L121.944444,18 C123.080139,18 124,17.105 124,16 L124,16 C124,14.895 123.080139,14 121.944444,14 L121.944444,14 L89.0555556,14 L89.0555556,14 Z" id="Earpiece" fill="#3D596D"></path>
            <path d="M12,268 L199,268 L199,76 L12,76 L12,268 L12,268 Z" id="Screen" fill="#FFFFFF"></path>
            <path d="M12,76 L199,76 L199,39 L12,39 L12,76 L12,76 Z" id="Blue-Bar" fill="#0087BE"></path>
            <path d="M12,376 L199,376 L199,268 L12,268 L12,376 L12,376 Z" id="Keyboard-Background" fill="#A8BECE"></path>
            <path d="M74.2306857,349 C71.9039143,349 70,350.791 70,352.999 L70,365.001 C70,367.208 71.8944,369 74.2306857,369 L139.769314,369 C142.096086,369 144,367.21 144,365.001 L144,352.999 C144,350.793 142.1056,349 139.769314,349 L74.2306857,349 Z M23.999,274 C21.792,274 20,275.79 20,277.999 L20,290.001 C20,292.207 21.791,294 23.999,294 L36.001,294 C38.208,294 40,292.21 40,290.001 L40,277.999 C40,275.793 38.209,274 36.001,274 L23.999,274 Z M174.999,274 C172.792,274 171,275.79 171,277.999 L171,290.001 C171,292.207 172.791,294 174.999,294 L187.001,294 C189.208,294 191,292.21 191,290.001 L191,277.999 C191,275.793 189.209,274 187.001,274 L174.999,274 Z M148.999,274 C146.792,274 145,275.79 145,277.999 L145,290.001 C145,292.207 146.791,294 148.999,294 L161.001,294 C163.208,294 165,292.21 165,290.001 L165,277.999 C165,275.793 163.209,274 161.001,274 L148.999,274 Z M36.999,299 C34.792,299 33,300.79 33,302.999 L33,315.001 C33,317.207 34.791,319 36.999,319 L49.001,319 C51.208,319 53,317.21 53,315.001 L53,302.999 C53,300.793 51.209,299 49.001,299 L36.999,299 Z M48.999,324 C46.792,324 45,325.79 45,327.999 L45,340.001 C45,342.207 46.791,344 48.999,344 L61.001,344 C63.208,344 65,342.21 65,340.001 L65,327.999 C65,325.793 63.209,324 61.001,324 L48.999,324 Z M148.999,324 C146.792,324 145,325.79 145,327.999 L145,340.001 C145,342.207 146.791,344 148.999,344 L161.001,344 C163.208,344 165,342.21 165,340.001 L165,327.999 C165,325.793 163.209,324 161.001,324 L148.999,324 Z M123.999,324 C121.792,324 120,325.79 120,327.999 L120,340.001 C120,342.207 121.791,344 123.999,344 L136.001,344 C138.208,344 140,342.21 140,340.001 L140,327.999 C140,325.793 138.209,324 136.001,324 L123.999,324 Z M98.999,324 C96.792,324 95,325.79 95,327.999 L95,340.001 C95,342.207 96.791,344 98.999,344 L111.001,344 C113.208,344 115,342.21 115,340.001 L115,327.999 C115,325.793 113.209,324 111.001,324 L98.999,324 Z M73.999,324 C71.792,324 70,325.79 70,327.999 L70,340.001 C70,342.207 71.791,344 73.999,344 L86.001,344 C88.208,344 90,342.21 90,340.001 L90,327.999 C90,325.793 88.209,324 86.001,324 L73.999,324 Z M161.999,299 C159.792,299 158,300.79 158,302.999 L158,315.001 C158,317.207 159.791,319 161.999,319 L174.001,319 C176.208,319 178,317.21 178,315.001 L178,302.999 C178,300.793 176.209,299 174.001,299 L161.999,299 Z M136.999,299 C134.792,299 133,300.79 133,302.999 L133,315.001 C133,317.207 134.791,319 136.999,319 L149.001,319 C151.208,319 153,317.21 153,315.001 L153,302.999 C153,300.793 151.209,299 149.001,299 L136.999,299 Z M111.999,299 C109.792,299 108,300.79 108,302.999 L108,315.001 C108,317.207 109.791,319 111.999,319 L124.001,319 C126.208,319 128,317.21 128,315.001 L128,302.999 C128,300.793 126.209,299 124.001,299 L111.999,299 Z M86.999,299 C84.792,299 83,300.79 83,302.999 L83,315.001 C83,317.207 84.791,319 86.999,319 L99.001,319 C101.208,319 103,317.21 103,315.001 L103,302.999 C103,300.793 101.209,299 99.001,299 L86.999,299 Z M61.999,299 C59.792,299 58,300.79 58,302.999 L58,315.001 C58,317.207 59.791,319 61.999,319 L74.001,319 C76.208,319 78,317.21 78,315.001 L78,302.999 C78,300.793 76.209,299 74.001,299 L61.999,299 Z M123.999,274 C121.792,274 120,275.79 120,277.999 L120,290.001 C120,292.207 121.791,294 123.999,294 L136.001,294 C138.208,294 140,292.21 140,290.001 L140,277.999 C140,275.793 138.209,274 136.001,274 L123.999,274 Z M98.999,274 C96.792,274 95,275.79 95,277.999 L95,290.001 C95,292.207 96.791,294 98.999,294 L111.001,294 C113.208,294 115,292.21 115,290.001 L115,277.999 C115,275.793 113.209,274 111.001,274 L98.999,274 Z M73.999,274 C71.792,274 70,275.79 70,277.999 L70,290.001 C70,292.207 71.791,294 73.999,294 L86.001,294 C88.208,294 90,292.21 90,290.001 L90,277.999 C90,275.793 88.209,274 86.001,274 L73.999,274 Z M48.999,274 C46.792,274 45,275.79 45,277.999 L45,290.001 C45,292.207 46.791,294 48.999,294 L61.001,294 C63.208,294 65,292.21 65,290.001 L65,277.999 C65,275.793 63.209,274 61.001,274 L48.999,274 Z" id="Keys" fill="#FFFFFF"></path>
            <path d="M105,107 L126,107 L126,97 L105,97 L105,107 Z M136,107 L167,107 L167,97 L136,97 L136,107 Z M33,107 L95,107 L95,97 L33,97 L33,107 Z M64,169 L115,169 L115,159 L64,159 L64,169 Z M33,169 L54,169 L54,159 L33,159 L33,169 Z M147,148 L168,148 L168,138 L147,138 L147,148 Z M85,148 L137,148 L137,138 L85,138 L85,148 Z M33,148 L74,148 L74,138 L33,138 L33,148 Z M74,127 L157,127 L157,117 L74,117 L74,127 Z M33,127 L64,127 L64,117 L33,117 L33,127 Z" id="Greek-Text" fill="#87A6BC"></path>
        </g>
        <g id="Laptop" transform="translate(404.000000, 0.000000)">
            <path d="M60.006,0 C48.956,0 40,8.75301035 40,19.5493996 L40,19.5493996 L40,472 L720,472 L720,19.5493996 C720,8.74910145 711.043,0 699.994,0 L699.994,0 L60.006,0 L60.006,0 Z" id="Screen-Background" fill="#2E4453"></path>
            <path d="M0,499.991 C0,511.042 8.954,520 19.998,520 L740.002,520 C751.036,520 760,511.042 760,499.991 L760,472 L0,472 L0,499.991 Z" id="Case-Bottom" fill="#3D596D"></path>
            <path d="M288,472 L288,477 C288,479.756 290.235,482 292.993,482 L292.993,482 L467.007,482 C469.756,482 472,479.762 472,477 L472,477 L472,472 L288,472 L288,472 Z" id="Latch" fill="#4F748E"></path>
            <path d="M60,452 L700,452 L700,20 L60,20 L60,452 L60,452 Z" id="Screen" fill="#78DCFA"></path>
            <g id="Dock" transform="translate(60.000000, 20.000000)">
                <path d="M0,432 L640,432 L640,0 L0,0 L0,432 L0,432 Z" id="Fill-11" fill="#78DCFA"></path>
                <path d="M158.007,352 C153.588,352 150,355.582 150,360 L150,432 L490,432 L490,360 C490,355.58 486.415,352 481.993,352 L158.007,352 L158.007,352 L158.007,352 Z" id="path-107" fill="#E9EFF3"></path>
                <path d="M174.008,372 C171.794,372 170,373.791 170,376 L170,408 C170,410.204 171.794,412 174.008,412 L215.993,412 C218.206,412 220,410.209 220,408 L220,376 C220,373.796 218.206,372 215.993,372 L174.008,372 L174.008,372 L174.008,372 Z" id="path-109" fill="#87A6BC"></path>
                <path d="M331.9999,416.9998 L381.9999,416.9998 L356.9999,367.0008 L331.9999,416.9998 L331.9999,416.9998 Z" id="Fill-19" fill="#87A6BC"></path>
                <path d="M410,392 C410,408.569 423.432,422 440,422 C456.569,422 470,408.569 470,392 C470,375.432 456.569,362 440,362 C423.432,362 410,375.432 410,392 L410,392 L410,392 Z" id="Mask" fill="#87A6BC"></path>
                <path d="M246,392 C246,408.569 259.431,422 276,422 C292.568,422 306,408.569 306,392 C306,375.432 292.568,362 276,362 C259.431,362 246,375.432 246,392 L246,392 L246,392 Z" id="path-113" fill="#00AADC"></path>
                <mask id="mask-2" fill="white">
                    <use xlink:href="#path-1"></use>
                </mask>
                <use id="path-115" fill="#FFFFFF" xlink:href="#path-1"></use>
            </g>
            <path d="M162.001,50 C157.572,50 154,53.586 154,58.009 L154,58.009 L154,339.991 C154,344.42 157.582,348 162.001,348 L162.001,348 L597.999,348 C602.427,348 606,344.414 606,339.991 L606,339.991 L606,58.009 C606,53.581 602.418,50 597.999,50 L597.999,50 L162.001,50 L162.001,50 Z" id="Window" fill="#E9EFF3"></path>
            <path d="M154,82 L154,339.992 C154,344.419 157.582,348 162.001,348 L162.001,348 L597.999,348 C602.427,348 606,344.415 606,339.992 L606,339.992 L606,82 L154,82 L154,82 Z" id="Page" fill="#FFFFFF"></path>
            <path d="M206,66 C206,69.314 208.686,72 212,72 L212,72 C215.314,72 218,69.314 218,66 L218,66 C218,62.686 215.314,60 212,60 L212,60 C208.686,60 206,62.686 206,66 L206,66 L206,66 Z M186,66 C186,69.314 188.686,72 192,72 L192,72 C195.314,72 198,69.314 198,66 L198,66 C198,62.686 195.314,60 192,60 L192,60 C188.686,60 186,62.686 186,66 L186,66 L186,66 Z M166,66 C166,69.314 168.686,72 172,72 L172,72 C175.314,72 178,69.314 178,66 L178,66 C178,62.686 175.314,60 172,60 L172,60 C168.686,60 166,62.686 166,66 L166,66 L166,66 Z" id="Window-Buttons" fill="#4F748E"></path>
            <path d="M154,118 L606,118 L606,82 L154,82 L154,118 L154,118 Z" id="Blue-Bar" fill="#0087BE"></path>
        </g>
    </g>
</svg>