<svg xmlns="http://www.w3.org/2000/svg" width="250" height="150" viewBox="0 0 250 150">
  <g fill="none" fill-rule="evenodd" transform="translate(53 14)">
    <path fill="#75C7F7" d="M99.7903,90.2758 L46.3293,115.2338 C43.3263,116.6358 39.7553,115.3378 38.3543,112.3358 L1.5513,33.5028 C0.1493,30.5008 1.4473,26.9298 4.4503,25.5278 L57.9113,0.5698 C60.9143,-0.8312 64.4843,0.4658 65.8863,3.4678 L102.6883,82.3008 C104.0903,85.3028 102.7923,88.8748 99.7903,90.2758"/>
    <path fill="#65BAF0" d="M29.9998,23.0004 L29.9998,94.4404 L38.3538,112.3354 C39.7558,115.3384 43.3268,116.6364 46.3288,115.2334 L47.9998,114.4534 L47.9998,17.0004 L35.9998,17.0004 C32.6868,17.0004 29.9998,19.6864 29.9998,23.0004"/>
    <path fill="#9DD7F9" d="M104.9875,119.9828 L40.0265,119.9828 C36.7125,119.9828 34.0265,117.2958 34.0265,113.9828 L34.0265,19.0168 C34.0265,15.7038 36.7125,13.0168 40.0265,13.0168 L90.9785,13.0168 L110.9875,32.9828 L110.9875,113.9828 C110.9875,117.2958 108.3015,119.9828 104.9875,119.9828"/>
    <path fill="#89CFF8" d="M110.9895,36.9828 L96.9895,36.9888 C93.6755,36.9908 90.9885,34.3048 90.9865,30.9918 L90.9785,12.9918 L110.9875,32.9828 L110.9895,36.9828 Z"/>
    <path fill="#C4E7FC" d="M110.9875,32.9828 L96.9875,32.9888 C93.6745,32.9908 90.9865,30.3048 90.9855,26.9918 L90.9785,12.9918 L110.9875,32.9828 Z"/>
    <path fill="#89CFF8" d="M110.9998,86.9994 L97.9898,87.0594 C95.7848,87.0644 93.9998,88.8534 93.9998,91.0594 L93.9998,108.0004 L93.9998,114.1314 C93.9998,114.9304 94.8898,115.4064 95.5548,114.9634 L98.9928,112.6724 C99.6488,112.2334 100.4218,112.0004 101.2108,112.0004 L101.9998,112.0004 L110.9998,111.9994 L110.9998,86.9994 Z"/>
    <path fill="#459FED" d="M97.9998,104.0004 L97.9998,110.1314 C97.9998,110.9304 98.8908,111.4064 99.5548,110.9634 L102.9928,108.6724 C103.6488,108.2334 104.4218,108.0004 105.2108,108.0004 L105.9998,108.0004 L105.9998,104.0004 L97.9998,104.0004 Z"/>
    <path fill="#459FED" d="M101.9998,108.0004 L121.9998,108.0004 C124.2088,108.0004 125.9998,106.2094 125.9998,104.0004 L125.9998,87.0094 C125.9998,84.7964 124.2038,83.0044 121.9908,83.0094 L101.9908,83.0594 C99.7848,83.0644 97.9998,84.8544 97.9998,87.0594 L97.9998,104.0004 C97.9998,106.2094 99.7908,108.0004 101.9998,108.0004"/>
    <path fill="#D8EFFD" d="M118.1487,101.8832 C116.4587,103.2132 114.3187,104.0032 111.9987,104.0032 C109.6787,104.0032 107.5387,103.2132 105.8487,101.8832 C106.0087,101.6942 106.1687,101.5132 106.3387,101.3432 C107.7887,99.8942 109.7887,99.0032 111.9987,99.0032 C114.2087,99.0032 116.2087,99.8942 117.6587,101.3432 C117.8287,101.5132 117.9887,101.6942 118.1487,101.8832"/>
    <path fill="#B2E0FA" d="M111.9998,101.0004 C110.8958,101.0004 109.9998,100.1044 109.9998,99.0004 L109.9998,97.0004 C109.9998,95.8964 110.8958,95.0004 111.9998,95.0004 C113.1048,95.0004 113.9998,95.8964 113.9998,97.0004 L113.9998,99.0004 C113.9998,100.1044 113.1048,101.0004 111.9998,101.0004"/>
    <path fill="#D8EFFD" d="M116.4998,96.0004 L107.4998,96.0004 C106.6718,96.0004 105.9998,95.3284 105.9998,94.5004 C105.9998,93.6714 106.6718,93.0004 107.4998,93.0004 L116.4998,93.0004 C117.3288,93.0004 117.9998,93.6714 117.9998,94.5004 C117.9998,95.3284 117.3288,96.0004 116.4998,96.0004"/>
    <path fill="#D8EFFD" d="M111.9998,87.0004 C114.7608,87.0004 116.9998,89.2384 116.9988,91.9994 L116.9988,93.9994 L106.9998,93.9994 L106.9998,91.9994 C106.9998,89.2374 109.2388,87.0004 111.9998,87.0004"/>
    <path fill="#D8EFFD" d="M112.0002,99.0004 C109.7912,99.0004 108.0002,97.2094 108.0002,95.0004 L108.0002,91.0004 L116.0002,91.0004 L116.0002,95.0004 C116.0002,97.2094 114.2092,99.0004 112.0002,99.0004"/>
    <path fill="#B2E0FA" d="M110.9998,88.0004 L112.9998,88.0004 C114.6568,88.0004 115.9998,89.3434 115.9998,91.0004 L115.9998,93.0004 L114.9998,93.0004 C112.7908,93.0004 110.9998,91.2094 110.9998,89.0004 L110.9998,88.0004 Z"/>
    <path fill="#D8EFFD" d="M112.0002,86.9994 C114.2092,86.9994 116.0002,88.7904 116.0002,90.9994 L114.0002,90.9994 C112.3432,90.9994 111.0002,89.6564 111.0002,87.9994 C111.0002,87.4474 111.4482,86.9994 112.0002,86.9994"/>
    <path fill="#B2E0FA" d="M110.9998,88.2426 L109.9998,88.2426 C108.8958,88.2426 107.9998,89.1386 107.9998,90.2426 L107.9998,92.0006 L108.9998,92.0006 C110.1048,92.0006 110.9998,91.1046 110.9998,90.0006 L110.9998,88.2426 Z"/>
    <path fill="#D8EFFD" d="M111.0002,87.9994 L110.0002,87.9994 C108.8962,87.9994 108.0002,88.8954 108.0002,89.9994 L108.0002,90.9994 L109.0002,90.9994 C110.1042,90.9994 111.0002,90.1034 111.0002,88.9994 L111.0002,87.9994 Z"/>
    <path fill="#C4E7FC" d="M55.9998,63.0004 L50.9998,63.0004 C49.8958,63.0004 48.9998,62.1044 48.9998,61.0004 L48.9998,56.0004 C48.9998,54.8964 49.8958,54.0004 50.9998,54.0004 L55.9998,54.0004 C57.1048,54.0004 57.9998,54.8964 57.9998,56.0004 L57.9998,61.0004 C57.9998,62.1044 57.1048,63.0004 55.9998,63.0004"/>
    <path fill="#FFF" d="M94.9998 60.0004L64.9998 60.0004C64.4478 60.0004 63.9998 59.5534 63.9998 59.0004 63.9998 58.4474 64.4478 58.0004 64.9998 58.0004L94.9998 58.0004C95.5518 58.0004 95.9998 58.4474 95.9998 59.0004 95.9998 59.5534 95.5518 60.0004 94.9998 60.0004M53.9998 61.0004C53.7348 61.0004 53.4808 60.8964 53.2928 60.7074L51.2928 58.7074C50.9018 58.3164 50.9018 57.6844 51.2928 57.2934 51.6838 56.9024 52.3158 56.9024 52.7068 57.2934L53.9328 58.5194 58.2318 53.3594C58.5848 52.9364 59.2158 52.8794 59.6398 53.2314 60.0638 53.5854 60.1218 54.2164 59.7678 54.6414L54.7678 60.6414C54.5878 60.8564 54.3258 60.9864 54.0448 60.9994 54.0298 61.0004 54.0148 61.0004 53.9998 61.0004"/>
    <path fill="#C4E7FC" d="M55.9998,77.0004 L50.9998,77.0004 C49.8958,77.0004 48.9998,76.1044 48.9998,75.0004 L48.9998,70.0004 C48.9998,68.8964 49.8958,68.0004 50.9998,68.0004 L55.9998,68.0004 C57.1048,68.0004 57.9998,68.8964 57.9998,70.0004 L57.9998,75.0004 C57.9998,76.1044 57.1048,77.0004 55.9998,77.0004"/>
    <path fill="#FFF" d="M94.9998,74.0004 L64.9998,74.0004 C64.4478,74.0004 63.9998,73.5534 63.9998,73.0004 C63.9998,72.4474 64.4478,72.0004 64.9998,72.0004 L94.9998,72.0004 C95.5518,72.0004 95.9998,72.4474 95.9998,73.0004 C95.9998,73.5534 95.5518,74.0004 94.9998,74.0004"/>
    <path fill="#C4E7FC" d="M55.9998,49.0004 L50.9998,49.0004 C49.8958,49.0004 48.9998,48.1044 48.9998,47.0004 L48.9998,42.0004 C48.9998,40.8964 49.8958,40.0004 50.9998,40.0004 L55.9998,40.0004 C57.1048,40.0004 57.9998,40.8964 57.9998,42.0004 L57.9998,47.0004 C57.9998,48.1044 57.1048,49.0004 55.9998,49.0004"/>
    <path fill="#FFF" d="M94.9998 46.0004L64.9998 46.0004C64.4478 46.0004 63.9998 45.5534 63.9998 45.0004 63.9998 44.4474 64.4478 44.0004 64.9998 44.0004L94.9998 44.0004C95.5518 44.0004 95.9998 44.4474 95.9998 45.0004 95.9998 45.5534 95.5518 46.0004 94.9998 46.0004M53.9998 47.0004C53.7348 47.0004 53.4808 46.8964 53.2928 46.7074L51.2928 44.7074C50.9018 44.3164 50.9018 43.6844 51.2928 43.2934 51.6838 42.9024 52.3158 42.9024 52.7068 43.2934L53.9328 44.5194 58.2318 39.3594C58.5848 38.9364 59.2158 38.8794 59.6398 39.2314 60.0638 39.5854 60.1218 40.2164 59.7678 40.6414L54.7678 46.6414C54.5878 46.8564 54.3258 46.9864 54.0448 46.9994 54.0298 47.0004 54.0148 47.0004 53.9998 47.0004M53.5168 102.0004L53.4978 102.0004C51.5298 101.9914 50.6068 100.4594 50.5688 100.3944 50.4298 100.1554 50.5088 99.8504 50.7468 99.7094 50.9838 99.5714 51.2898 99.6494 51.4308 99.8864 51.4638 99.9414 52.1228 100.9944 53.5028 101.0004L53.5168 101.0004C54.2348 101.0004 54.8268 100.7804 55.1828 100.3804 55.4238 100.1094 55.5338 99.7704 55.4918 99.4244 55.4168 98.8124 54.9818 98.5014 53.5478 98.0384 52.0818 97.5814 50.6918 97.1474 50.5158 95.6964 50.4388 95.0614 50.6368 94.4424 51.0708 93.9544 51.6198 93.3384 52.4748 93.0004 53.4818 93.0004L53.5028 93.0004C55.4708 93.0094 56.3928 94.5404 56.4318 94.6054 56.5708 94.8434 56.4918 95.1494 56.2538 95.2894 56.0148 95.4304 55.7088 95.3514 55.5688 95.1114 55.5428 95.0694 54.8848 94.0064 53.4978 94.0004 52.7908 93.9584 52.1758 94.2174 51.8178 94.6194 51.5768 94.8904 51.4668 95.2294 51.5088 95.5754 51.5928 96.2694 52.1668 96.5604 53.8508 97.0854 55.1998 97.5214 56.3248 97.9874 56.4848 99.3034 56.5608 99.9374 56.3638 100.5574 55.9298 101.0454 55.3808 101.6614 54.5248 102.0004 53.5168 102.0004"/>
    <path fill="#FFF" d="M53.4998 93.6351C53.2238 93.6351 52.9998 93.4111 52.9998 93.1351L52.9998 92.5001C52.9998 92.2241 53.2238 92.0001 53.4998 92.0001 53.7758 92.0001 53.9998 92.2241 53.9998 92.5001L53.9998 93.1351C53.9998 93.4111 53.7758 93.6351 53.4998 93.6351M53.4998 103.0004C53.2238 103.0004 52.9998 102.7764 52.9998 102.5004L52.9998 101.5194C52.9998 101.2424 53.2238 101.0194 53.4998 101.0194 53.7758 101.0194 53.9998 101.2424 53.9998 101.5194L53.9998 102.5004C53.9998 102.7764 53.7758 103.0004 53.4998 103.0004"/>
    <path fill="#D8EFFD" d="M57.9998,108.0004 L48.9998,108.0004 C48.4478,108.0004 47.9998,107.5534 47.9998,107.0004 C47.9998,106.4474 48.4478,106.0004 48.9998,106.0004 L57.9998,106.0004 C58.5518,106.0004 58.9998,106.4474 58.9998,107.0004 C58.9998,107.5534 58.5518,108.0004 57.9998,108.0004"/>
    <path fill="#459FED" d="M142.9998,75.0004 L142.9998,81.1314 C142.9998,81.9304 142.1098,82.4064 141.4448,81.9634 L138.0078,79.6724 C137.3508,79.2334 136.5788,79.0004 135.7888,79.0004 L134.9998,79.0004 L134.9998,75.0004 L142.9998,75.0004 Z"/>
    <path fill="#459FED" d="M138.9998,79.0004 L118.9998,79.0004 C116.7908,79.0004 114.9998,77.2094 114.9998,75.0004 L114.9998,58.0094 C114.9998,55.7964 116.7968,54.0044 119.0098,54.0094 L139.0098,54.0594 C141.2148,54.0644 142.9998,55.8544 142.9998,58.0594 L142.9998,75.0004 C142.9998,77.2094 141.2088,79.0004 138.9998,79.0004"/>
    <path fill="#D8EFFD" d="M122.8513,72.8832 C124.5413,74.2132 126.6813,75.0032 129.0013,75.0032 C131.3213,75.0032 133.4613,74.2132 135.1513,72.8832 C134.9913,72.6942 134.8313,72.5132 134.6613,72.3432 C133.2113,70.8942 131.2113,70.0032 129.0013,70.0032 C126.7913,70.0032 124.7913,70.8942 123.3413,72.3432 C123.1713,72.5132 123.0113,72.6942 122.8513,72.8832"/>
    <path fill="#B2E0FA" d="M128.9998,72.0004 C130.1048,72.0004 130.9998,71.1044 130.9998,70.0004 L130.9998,68.0004 C130.9998,66.8964 130.1048,66.0004 128.9998,66.0004 C127.8958,66.0004 126.9998,66.8964 126.9998,68.0004 L126.9998,70.0004 C126.9998,71.1044 127.8958,72.0004 128.9998,72.0004"/>
    <path fill="#D8EFFD" d="M124.4998,67.0004 L133.4998,67.0004 C134.3288,67.0004 134.9998,66.3284 134.9998,65.5004 C134.9998,64.6714 134.3288,64.0004 133.4998,64.0004 L124.4998,64.0004 C123.6718,64.0004 122.9998,64.6714 122.9998,65.5004 C122.9998,66.3284 123.6718,67.0004 124.4998,67.0004"/>
    <path fill="#D8EFFD" d="M129.0002,58.0004 C126.2392,58.0004 124.0002,60.2384 124.0012,63.0004 L124.0012,64.9994 L134.0002,64.9994 L134.0002,62.9984 C133.9992,60.2374 131.7612,58.0004 129.0002,58.0004"/>
    <path fill="#D8EFFD" d="M128.9998,70.0004 C131.2088,70.0004 132.9998,68.2094 132.9998,66.0004 L132.9998,62.0004 L124.9998,62.0004 L124.9998,66.0004 C124.9998,68.2094 126.7908,70.0004 128.9998,70.0004"/>
    <path fill="#B2E0FA" d="M129.9998,59.0004 L127.9998,59.0004 C126.3428,59.0004 124.9998,60.3434 124.9998,62.0004 L124.9998,64.0004 L125.9998,64.0004 C128.2088,64.0004 129.9998,62.2094 129.9998,60.0004 L129.9998,59.0004 Z"/>
    <path fill="#D8EFFD" d="M128.9998,57.9994 C126.7908,57.9994 124.9998,59.7904 124.9998,61.9994 L126.9998,61.9994 C128.6568,61.9994 129.9998,60.6564 129.9998,58.9994 C129.9998,58.4474 129.5518,57.9994 128.9998,57.9994"/>
    <path fill="#B2E0FA" d="M130.0002,59.2426 L131.0002,59.2426 C132.1042,59.2426 133.0002,60.1386 133.0002,61.2426 L133.0002,63.0006 L132.0002,63.0006 C130.8952,63.0006 130.0002,62.1046 130.0002,61.0006 L130.0002,59.2426 Z"/>
    <path fill="#D8EFFD" d="M129.9998,58.9994 L130.9998,58.9994 C132.1038,58.9994 132.9998,59.8954 132.9998,60.9994 L132.9998,61.9994 L131.9998,61.9994 C130.8958,61.9994 129.9998,61.1034 129.9998,59.9994 L129.9998,58.9994 Z"/>
  </g>
</svg>
