<svg xmlns="http://www.w3.org/2000/svg" width="300" height="180" viewBox="0 0 300 180">
  <g fill="none" fill-rule="evenodd" transform="translate(50 15)">
    <path fill="#7FCCF7" d="M193.9999,58.9938 L5.9999,58.9938 C2.6869,58.9938 -0.0001,61.6798 -0.0001,64.9938 L-0.0001,116.9938 C-0.0001,120.3068 2.6869,122.9938 5.9999,122.9938 L64.9999,122.9938 L80.4759,122.9938 C86.6819,122.9938 92.1129,127.1658 93.7119,133.1628 C94.4719,136.0118 97.0519,137.9938 99.9999,137.9938 C102.9479,137.9938 105.5289,136.0118 106.2879,133.1628 C107.8869,127.1658 113.3179,122.9938 119.5239,122.9938 L134.9999,122.9938 L193.9999,122.9938 C197.3129,122.9938 199.9999,120.3068 199.9999,116.9938 L199.9999,64.9938 C199.9999,61.6798 197.3129,58.9938 193.9999,58.9938"/>
    <path fill="#D3EDFF" d="M188.9999 48.9938L116.9999 48.9938C108.1639 48.9938 100.9999 56.1568 100.9999 64.9938L100.9999 130.9938 101.7339 128.9388C104.2919 121.7748 111.0779 116.9938 118.6849 116.9938L188.9999 116.9938C192.3139 116.9938 194.9999 114.3068 194.9999 110.9938L194.9999 54.9938C194.9999 51.6798 192.3139 48.9938 188.9999 48.9938M11.0002 48.9938L83.0002 48.9938C91.8372 48.9938 99.0002 56.1568 99.0002 64.9938L99.0002 130.9938 98.2662 128.9388C95.7082 121.7748 88.9222 116.9938 81.3152 116.9938L11.0002 116.9938C7.6862 116.9938 5.0002 114.3068 5.0002 110.9938L5.0002 54.9938C5.0002 51.6798 7.6862 48.9938 11.0002 48.9938"/>
    <path fill="#EAF7FF" d="M182.9999,107.9938 L112.9999,107.9938 C111.3429,107.9938 109.9999,106.6498 109.9999,104.9938 L109.9999,65.9938 C109.9999,61.5748 113.5819,57.9938 117.9999,57.9938 L182.9999,57.9938 C184.6569,57.9938 185.9999,59.3368 185.9999,60.9938 L185.9999,104.9938 C185.9999,106.6498 184.6569,107.9938 182.9999,107.9938"/>
    <path fill="#7FCCF7" d="M185.9999,87.9938 L109.9999,87.9938 L109.9999,65.9938 C109.9999,61.5748 113.5819,57.9938 117.9999,57.9938 L182.9999,57.9938 C184.6569,57.9938 185.9999,59.3368 185.9999,60.9938 L185.9999,87.9938 Z"/>
    <path fill="#B2E0FA" d="M173.9999 101.9938L120.9999 101.9938C120.4479 101.9938 119.9999 101.5468 119.9999 100.9938 119.9999 100.4408 120.4479 99.9938 120.9999 99.9938L173.9999 99.9938C174.5519 99.9938 174.9999 100.4408 174.9999 100.9938 174.9999 101.5468 174.5519 101.9938 173.9999 101.9938M140.9999 95.9938L120.9999 95.9938C120.4479 95.9938 119.9999 95.5468 119.9999 94.9938 119.9999 94.4408 120.4479 93.9938 120.9999 93.9938L140.9999 93.9938C141.5519 93.9938 141.9999 94.4408 141.9999 94.9938 141.9999 95.5468 141.5519 95.9938 140.9999 95.9938"/>
    <path fill="#EAF7FF" d="M148.0004,82.9938 C142.4774,82.9938 138.0004,78.5158 138.0004,72.9938 C138.0004,67.4708 142.4774,62.9938 148.0004,62.9938 C153.5224,62.9938 158.0004,67.4708 158.0004,72.9938 C158.0004,78.5158 153.5224,82.9938 148.0004,82.9938"/>
    <path fill="#7FCCF7" d="M144.9999,75.6178 L144.9999,70.3688 C144.9999,69.7368 145.6649,69.3258 146.2299,69.6078 L151.4789,72.2328 C152.1059,72.5468 152.1059,73.4398 151.4789,73.7538 L146.2299,76.3788 C145.6649,76.6608 144.9999,76.2498 144.9999,75.6178"/>
    <path fill="#B2E0FA" d="M24.7812,58.9938 L22.7422,58.9938 C22.1902,58.9938 21.7422,58.5468 21.7422,57.9938 C21.7422,57.4408 22.1902,56.9938 22.7422,56.9938 L24.7812,56.9938 C25.3332,56.9938 25.7812,57.4408 25.7812,57.9938 C25.7812,58.5468 25.3332,58.9938 24.7812,58.9938 M34.9762,58.9938 L32.9372,58.9938 C32.3852,58.9938 31.9372,58.5468 31.9372,57.9938 C31.9372,57.4408 32.3852,56.9938 32.9372,56.9938 L34.9762,56.9938 C35.5282,56.9938 35.9762,57.4408 35.9762,57.9938 C35.9762,58.5468 35.5282,58.9938 34.9762,58.9938 M45.1712,58.9938 L43.1322,58.9938 C42.5792,58.9938 42.1322,58.5468 42.1322,57.9938 C42.1322,57.4408 42.5792,56.9938 43.1322,56.9938 L45.1712,56.9938 C45.7232,56.9938 46.1712,57.4408 46.1712,57.9938 C46.1712,58.5468 45.7232,58.9938 45.1712,58.9938 M55.3652,58.9938 L53.3262,58.9938 C52.7742,58.9938 52.3262,58.5468 52.3262,57.9938 C52.3262,57.4408 52.7742,56.9938 53.3262,56.9938 L55.3652,56.9938 C55.9182,56.9938 56.3652,57.4408 56.3652,57.9938 C56.3652,58.5468 55.9182,58.9938 55.3652,58.9938 M65.5602,58.9938 L63.5212,58.9938 C62.9692,58.9938 62.5212,58.5468 62.5212,57.9938 C62.5212,57.4408 62.9692,56.9938 63.5212,56.9938 L65.5602,56.9938 C66.1122,56.9938 66.5602,57.4408 66.5602,57.9938 C66.5602,58.5468 66.1122,58.9938 65.5602,58.9938 M75.7552,58.9938 L73.7162,58.9938 C73.1632,58.9938 72.7162,58.5468 72.7162,57.9938 C72.7162,57.4408 73.1632,56.9938 73.7162,56.9938 L75.7552,56.9938 C76.3072,56.9938 76.7552,57.4408 76.7552,57.9938 C76.7552,58.5468 76.3072,58.9938 75.7552,58.9938 M85.7892,59.9458 C85.6292,59.9458 85.4672,59.9078 85.3152,59.8258 C84.7942,59.5448 84.2362,59.3308 83.6562,59.1888 C83.1192,59.0578 82.7902,58.5168 82.9212,57.9808 C83.0522,57.4448 83.5952,57.1178 84.1292,57.2458 C84.8752,57.4278 85.5942,57.7038 86.2652,58.0658 C86.7512,58.3278 86.9322,58.9348 86.6702,59.4208 C86.4892,59.7558 86.1452,59.9458 85.7892,59.9458 M14.0122,61.7308 C13.9832,61.7308 13.9552,61.7298 13.9252,61.7268 C13.3752,61.6808 12.9682,61.1948 13.0152,60.6448 C13.0932,59.7378 13.4852,58.8758 14.1192,58.2188 C14.5022,57.8188 15.1352,57.8068 15.5332,58.1918 C15.9312,58.5748 15.9422,59.2078 15.5592,59.6048 C15.2422,59.9338 15.0472,60.3648 15.0082,60.8168 C14.9632,61.3388 14.5262,61.7308 14.0122,61.7308 M90.0002,68.5658 C89.4482,68.5658 89.0002,68.1188 89.0002,67.5658 L89.0002,65.9938 C89.0002,65.8568 88.9962,65.7228 88.9882,65.5868 C88.9552,65.0358 89.3752,64.5618 89.9272,64.5288 C90.4712,64.4858 90.9512,64.9158 90.9842,65.4678 C90.9952,65.6418 91.0002,65.8178 91.0002,65.9938 L91.0002,67.5658 C91.0002,68.1188 90.5522,68.5658 90.0002,68.5658 M14.0002,71.9268 C13.4482,71.9268 13.0002,71.4788 13.0002,70.9268 L13.0002,68.8878 C13.0002,68.3348 13.4482,67.8878 14.0002,67.8878 C14.5522,67.8878 15.0002,68.3348 15.0002,68.8878 L15.0002,70.9268 C15.0002,71.4788 14.5522,71.9268 14.0002,71.9268 M90.0002,78.7608 C89.4482,78.7608 89.0002,78.3128 89.0002,77.7608 L89.0002,75.7218 C89.0002,75.1688 89.4482,74.7218 90.0002,74.7218 C90.5522,74.7218 91.0002,75.1688 91.0002,75.7218 L91.0002,77.7608 C91.0002,78.3128 90.5522,78.7608 90.0002,78.7608 M14.0002,82.1218 C13.4482,82.1218 13.0002,81.6748 13.0002,81.1218 L13.0002,79.0828 C13.0002,78.5298 13.4482,78.0828 14.0002,78.0828 C14.5522,78.0828 15.0002,78.5298 15.0002,79.0828 L15.0002,81.1218 C15.0002,81.6748 14.5522,82.1218 14.0002,82.1218 M90.0002,88.9558 C89.4482,88.9558 89.0002,88.5088 89.0002,87.9558 L89.0002,85.9168 C89.0002,85.3638 89.4482,84.9168 90.0002,84.9168 C90.5522,84.9168 91.0002,85.3638 91.0002,85.9168 L91.0002,87.9558 C91.0002,88.5088 90.5522,88.9558 90.0002,88.9558 M14.0002,92.3158 C13.4482,92.3158 13.0002,91.8688 13.0002,91.3158 L13.0002,89.2768 C13.0002,88.7238 13.4482,88.2768 14.0002,88.2768 C14.5522,88.2768 15.0002,88.7238 15.0002,89.2768 L15.0002,91.3158 C15.0002,91.8688 14.5522,92.3158 14.0002,92.3158 M90.0002,99.1498 C89.4482,99.1498 89.0002,98.7028 89.0002,98.1498 L89.0002,96.1108 C89.0002,95.5578 89.4482,95.1108 90.0002,95.1108 C90.5522,95.1108 91.0002,95.5578 91.0002,96.1108 L91.0002,98.1498 C91.0002,98.7028 90.5522,99.1498 90.0002,99.1498 M14.0002,102.5108 C13.4482,102.5108 13.0002,102.0628 13.0002,101.5108 L13.0002,99.4718 C13.0002,98.9188 13.4482,98.4718 14.0002,98.4718 C14.5522,98.4718 15.0002,98.9188 15.0002,99.4718 L15.0002,101.5108 C15.0002,102.0628 14.5522,102.5108 14.0002,102.5108 M88.3172,108.6898 C87.9472,108.6898 87.5922,108.4838 87.4182,108.1298 C87.1752,107.6338 87.3812,107.0348 87.8772,106.7918 C88.2862,106.5918 88.6192,106.2538 88.8122,105.8398 C89.0462,105.3398 89.6412,105.1258 90.1422,105.3568 C90.6422,105.5918 90.8582,106.1868 90.6242,106.6868 C90.2382,107.5128 89.5742,108.1878 88.7562,108.5888 C88.6142,108.6578 88.4652,108.6898 88.3172,108.6898 M19.0392,108.9938 L17.0002,108.9938 C16.4482,108.9938 15.9792,108.5458 15.9792,107.9928 C15.9792,107.4168 16.4922,106.9508 17.0712,106.9968 L19.0392,106.9938 C19.5912,106.9938 20.0392,107.4408 20.0392,107.9938 C20.0392,108.5468 19.5912,108.9938 19.0392,108.9938 M29.2342,108.9938 L27.1952,108.9938 C26.6422,108.9938 26.1952,108.5468 26.1952,107.9938 C26.1952,107.4408 26.6422,106.9938 27.1952,106.9938 L29.2342,106.9938 C29.7862,106.9938 30.2342,107.4408 30.2342,107.9938 C30.2342,108.5468 29.7862,108.9938 29.2342,108.9938 M39.4282,108.9938 L37.3892,108.9938 C36.8372,108.9938 36.3892,108.5468 36.3892,107.9938 C36.3892,107.4408 36.8372,106.9938 37.3892,106.9938 L39.4282,106.9938 C39.9812,106.9938 40.4282,107.4408 40.4282,107.9938 C40.4282,108.5468 39.9812,108.9938 39.4282,108.9938 M49.6232,108.9938 L47.5842,108.9938 C47.0322,108.9938 46.5842,108.5468 46.5842,107.9938 C46.5842,107.4408 47.0322,106.9938 47.5842,106.9938 L49.6232,106.9938 C50.1752,106.9938 50.6232,107.4408 50.6232,107.9938 C50.6232,108.5468 50.1752,108.9938 49.6232,108.9938 M59.8182,108.9938 L57.7792,108.9938 C57.2262,108.9938 56.7792,108.5468 56.7792,107.9938 C56.7792,107.4408 57.2262,106.9938 57.7792,106.9938 L59.8182,106.9938 C60.3702,106.9938 60.8182,107.4408 60.8182,107.9938 C60.8182,108.5468 60.3702,108.9938 59.8182,108.9938 M70.0122,108.9938 L67.9732,108.9938 C67.4212,108.9938 66.9732,108.5468 66.9732,107.9938 C66.9732,107.4408 67.4212,106.9938 67.9732,106.9938 L70.0122,106.9938 C70.5652,106.9938 71.0122,107.4408 71.0122,107.9938 C71.0122,108.5468 70.5652,108.9938 70.0122,108.9938 M80.2072,108.9938 L78.1682,108.9938 C77.6162,108.9938 77.1682,108.5468 77.1682,107.9938 C77.1682,107.4408 77.6162,106.9938 78.1682,106.9938 L80.2072,106.9938 C80.7592,106.9938 81.2072,107.4408 81.2072,107.9938 C81.2072,108.5468 80.7592,108.9938 80.2072,108.9938"/>
    <path fill="#EAF7FF" d="M51.9994,92.9938 C57.5224,92.9938 61.9994,88.5158 61.9994,82.9938 C61.9994,77.4708 57.5224,72.9938 51.9994,72.9938 C46.4774,72.9938 41.9994,77.4708 41.9994,82.9938 C41.9994,88.5158 46.4774,92.9938 51.9994,92.9938"/>
    <path fill="#459FED" d="M55.9999,83.9938 L47.9999,83.9938 C47.4469,83.9938 46.9999,83.5468 46.9999,82.9938 C46.9999,82.4408 47.4469,81.9938 47.9999,81.9938 L55.9999,81.9938 C56.5519,81.9938 56.9999,82.4408 56.9999,82.9938 C56.9999,83.5468 56.5519,83.9938 55.9999,83.9938"/>
    <path fill="#459FED" d="M51.9984,87.9909 C51.4464,87.9909 50.9984,87.5439 50.9984,86.9919 L50.9934,78.9939 C50.9934,78.4409 51.4404,77.9929 51.9934,77.9929 C52.5454,77.9929 52.9934,78.4399 52.9934,78.9919 L52.9984,86.9899 C52.9984,87.5429 52.5514,87.9909 51.9984,87.9909 Z"/>
    <path fill="#B2E0FA" d="M91.1186,61.1169 L30.3986,89.4279 C27.3986,90.8269 23.8286,89.5269 22.4286,86.5269 L6.1086,51.5369 C7.1786,49.9969 8.9786,48.9969 10.9986,48.9969 L82.9986,48.9969 C87.3686,48.9969 91.3186,50.7469 94.2086,53.5869 C95.2986,56.4969 93.9786,59.7869 91.1186,61.1169"/>
    <path fill="#459FED" d="M93.123,55.029 L32.4,83.344 C29.397,84.745 25.827,83.446 24.427,80.442 L4.564,37.846 C3.163,34.842 4.463,31.273 7.466,29.873 L68.188,1.557 C71.192,0.157 74.762,1.456 76.162,4.46 L96.025,47.055 C97.426,50.059 96.126,53.629 93.123,55.029"/>
    <path fill="#B2E0FA" d="M70.4096,52.277 C70.1236,52.277 69.8396,52.155 69.6416,51.919 C69.2876,51.496 69.3436,50.866 69.7656,50.511 C69.9916,50.321 75.2626,45.76 72.1416,39.252 C69.9486,34.678 71.0846,31.777 72.4246,30.148 C73.7476,28.54 75.9366,27.525 76.6686,27.71 L77.2856,27.869 L77.4066,28.5 C77.5066,29.043 77.1476,29.564 76.6046,29.665 C76.5686,29.672 76.5326,29.676 76.4966,29.678 C76.0346,29.812 74.2226,30.597 73.3766,32.339 C72.5976,33.941 72.7886,35.975 73.9456,38.386 C77.7466,46.315 71.1176,51.988 71.0506,52.044 C70.8636,52.201 70.6366,52.277 70.4096,52.277"/>
    <path fill="#D3EDFF" d="M77.8095,50.5846 C77.4595,49.8336 76.5665,49.5086 75.8165,49.8586 L74.4565,50.4926 L64.8925,29.9816 L60.8705,21.3556 C60.5595,20.6896 59.6075,20.7056 59.3185,21.3816 L57.4855,25.6646 C56.7915,25.7556 56.1015,25.9506 55.4345,26.2616 L55.4345,26.2626 C54.7675,26.5726 54.1735,26.9776 53.6585,27.4486 L49.1985,26.1006 C48.4955,25.8876 47.8715,26.6066 48.1825,27.2726 L52.2045,35.8986 L61.7685,56.4096 L60.4095,57.0436 C59.6585,57.3936 59.3335,58.2856 59.6835,59.0366 C60.0335,59.7876 60.9265,60.1116 61.6765,59.7626 L63.0365,59.1286 L75.7245,53.2116 L77.0835,52.5776 C77.8345,52.2276 78.1595,51.3356 77.8095,50.5846"/>
    <path fill="#B2E0FA" d="M67.1503 39.5563L68.9623 38.7103 68.1173 36.8983 66.3053 37.7443C65.8043 37.9773 65.5883 38.5723 65.8213 39.0723 66.0543 39.5733 66.6503 39.7893 67.1503 39.5563M65.4599 35.9304L67.2719 35.0854 66.4269 33.2734 64.6149 34.1184C64.1139 34.3514 63.8979 34.9474 64.1309 35.4474 64.3639 35.9484 64.9599 36.1634 65.4599 35.9304M58.0873 43.7819L56.2753 44.6279 55.4293 42.8149 57.2423 41.9699C57.7423 41.7359 58.3373 41.9529 58.5703 42.4529 58.8043 42.9539 58.5873 43.5489 58.0873 43.7819M56.3969 40.1569L54.5839 41.0029 53.7389 39.1889 55.5519 38.3449C56.0519 38.1109 56.6469 38.3279 56.8799 38.8279 57.1139 39.3289 56.8969 39.9239 56.3969 40.1569M73.0087 54.4772L65.7587 57.8572 60.8787 47.4072C62.2487 47.8272 63.7587 47.7572 65.1587 47.1072 66.5487 46.4562 67.5687 45.3472 68.1287 44.0372L73.0087 54.4772z"/>
    <path fill="#7FCCF7" d="M59.7582 28.6794C59.6882 29.0104 59.8992 29.3354 60.2312 29.4064 60.5622 29.4764 60.8872 29.2654 60.9572 28.9334 61.0282 28.6024 60.8162 28.2774 60.4852 28.2064 60.1542 28.1364 59.8282 28.3484 59.7582 28.6794M53.663 31.9284C53.806 32.2354 54.171 32.3674 54.477 32.2254 54.785 32.0814 54.917 31.7174 54.774 31.4094 54.631 31.1034 54.267 30.9704 53.959 31.1144 53.653 31.2564 53.52 31.6214 53.663 31.9284"/>
    <path fill="#B2E0FA" d="M57.141,34.0866 C57.545,34.9536 58.577,35.3296 59.444,34.9246 C60.312,34.5206 60.687,33.4886 60.283,32.6216 C59.878,31.7536 58.847,31.3786 57.979,31.7826 C57.112,32.1876 56.736,33.2186 57.141,34.0866"/>
    <path fill="#FFF" d="M59.539 30.9684C60.174 30.6714 60.929 30.9474 61.225 31.5814 61.521 32.2164 61.247 32.9724 60.611 33.2684 60.283 33.4204 59.924 33.4194 59.612 33.2964L59.612 33.2984 58.527 32.8944 59.146 31.1514 59.539 30.9684zM56.4008 32.4313L56.7938 32.2473 58.5268 32.8943 58.1388 33.9853 58.1378 33.9843C58.0308 34.3023 57.8018 34.5773 57.4738 34.7313 56.8378 35.0273 56.0838 34.7523 55.7868 34.1183 55.4908 33.4823 55.7658 32.7273 56.4008 32.4313"/>
    <polygon fill="#7FCCF7" points="59.146 31.151 58.527 32.894 56.794 32.248"/>
    <path fill="#D3EDFF" d="M41.0429,51.9079 C41.0009,49.5499 41.3679,45.5839 41.5339,43.7769 C41.7069,41.9019 42.3839,39.2699 43.7019,36.1949 C43.2319,39.6649 42.3609,45.5219 44.1359,49.6609 C45.9119,53.7999 41.0429,51.9079 41.0429,51.9079"/>
    <path fill="#EAF7FF" d="M37.4638 53.5768C35.6838 52.0288 32.4098 49.7608 30.9198 48.7268 29.3718 47.6538 26.9198 46.4808 23.7168 45.5138 26.6778 47.3848 31.7248 50.4818 33.7548 54.5018 35.7838 58.5218 37.4638 53.5768 37.4638 53.5768M40.4389 53.1149C41.4879 56.4669 34.7689 36.6499 38.3969 27.5859 37.2489 32.7199 38.0199 38.6059 42.5899 52.1119L40.4389 53.1149z"/>
    <path fill="#D3EDFF" d="M40.2616,57.611 C40.2616,57.611 31.3446,33.338 24.9866,27.219 C24.9866,27.219 28.5276,29.605 32.7496,35.852 C36.0536,40.739 39.8986,47.499 43.1106,56.07 L40.2616,57.611 Z"/>
    <path fill="#EAF7FF" d="M32.2831,45.0134 C30.2621,40.8344 27.6131,35.0514 25.2861,32.5964 C29.3871,35.6394 37.8061,48.8374 39.4771,53.5634 C41.1491,58.2894 35.0581,54.3494 35.0581,54.3494 C34.6361,51.1094 33.7061,47.9544 32.2831,45.0134"/>
    <path fill="#D3EDFF" d="M38.5478,59.7643 C38.5478,59.7643 32.5768,46.5123 23.7748,38.8183 C30.9168,42.3133 40.0688,55.6773 40.8728,58.6803 C41.6768,61.6833 38.5478,59.7643 38.5478,59.7643"/>
    <path fill="#B2E0FA" d="M48.1928,50.6032 L30.7008,58.7592 C30.2758,58.9572 29.7698,58.7742 29.5708,58.3482 L29.4448,58.0762 C29.2458,57.6512 29.4298,57.1452 29.8558,56.9472 L47.3478,48.7902 C47.7728,48.5912 48.2788,48.7762 48.4768,49.2012 L48.6038,49.4732 C48.8018,49.8992 48.6178,50.4042 48.1928,50.6032"/>
    <path fill="#B2E0FA" d="M47.6342,49.7634 L47.8762,50.7544 L48.3592,52.7364 L50.6732,62.2374 C51.0112,63.6254 50.3222,65.0614 49.0262,65.6654 L41.7012,69.0804 C40.4052,69.6854 38.8632,69.2904 38.0162,68.1384 L32.2262,60.2584 L31.0182,58.6154 L30.4142,57.7934 L47.6342,49.7634 Z"/>
    <polygon fill="#FFF" points="47.876 50.755 31.019 58.615 32.227 60.259 48.358 52.736"/>
  </g>
</svg>
